<?xml version="1.0" encoding="UTF-8"?>
<svg width="18" height="18" viewBox="0 0 18 18" xmlns="http://www.w3.org/2000/svg">
    <path d="M14.767 13.885c-.542.952-1.123 1.832-1.748 2.643-.854 1.111-1.549 1.881-2.084 2.312-.832.765-1.723 1.156-2.677 1.176-.685 0-1.51-.195-2.473-.59-.964-.393-1.849-.59-2.657-.59-.849 0-1.76.197-2.734.59-.975.394-1.762.599-2.361.615-.913.039-1.822-.364-2.728-1.209-.582-.478-1.311-1.297-2.186-2.459-.939-1.229-1.713-2.653-2.321-4.276-.648-1.74-.973-3.427-.973-5.062 0-1.872.405-3.485 1.215-4.839.637-1.067 1.484-1.91 2.546-2.529 1.062-.619 2.209-.934 3.442-.955.675 0 1.561.209 2.658.619 1.096.411 1.8.619 2.108.619.231 0 1.013-.244 2.341-.728 1.255-.449 2.314-.636 3.178-.565 2.349.189 4.113 1.115 5.285 2.782-2.1 1.271-3.138 3.056-3.117 5.347.019 1.783.665 3.266 1.935 4.444.575.546 1.216.968 1.926 1.269-.154.449-.317.879-.49 1.291zM11.509.521C11.509 1.938 10.995 3.224 9.97 4.376c-1.025 1.151-2.265 1.816-3.62 1.71-.017-.142-.027-.291-.027-.449 0-1.37.596-2.836 1.654-4.048.529-.609 1.201-1.115 2.017-1.518.815-.399 1.586-.619 2.311-.661.021.371.033.742.033 1.111z" fill="#ffffff"/>
</svg> 